<?xml version="1.0" encoding="UTF-8"?>
<!DOCTYPE svg PUBLIC "-//W3C//DTD SVG 1.1//EN" "http://www.w3.org/Graphics/SVG/1.1/DTD/svg11.dtd">
<svg xmlns="http://www.w3.org/2000/svg" version="1.1" width="90px" height="90px" style="shape-rendering:geometricPrecision; text-rendering:geometricPrecision; image-rendering:optimizeQuality; fill-rule:evenodd; clip-rule:evenodd" xmlns:xlink="http://www.w3.org/1999/xlink">
<g><path style="opacity:0.921" fill="#fff" d="M 19.5,8.5 C 21.8568,8.33669 24.1902,8.50335 26.5,9C 29.5412,14.2502 32.7079,19.4168 36,24.5C 36.6667,26.5 36.6667,28.5 36,30.5C 34.8152,32.8696 33.6485,35.2029 32.5,37.5C 36.9037,44.7408 42.5704,50.9075 49.5,56C 52.7626,56.1364 55.7626,55.1364 58.5,53C 60.5,52.3333 62.5,52.3333 64.5,53C 69.3343,56.2516 74.3343,59.2516 79.5,62C 81.1234,69.0801 78.4567,74.0801 71.5,77C 66.4107,77.8257 61.4107,77.4924 56.5,76C 40.8445,67.0151 27.6779,55.1818 17,40.5C 12.0151,33.5474 10.3484,25.8808 12,17.5C 13.6416,13.6997 16.1416,10.6997 19.5,8.5 Z"/></g>
</svg>
